<svg xmlns="http://www.w3.org/2000/svg" viewBox="332.800011648 330.133344888 336.00001176 336.00001176" id="svg2" version="1.1" style="max-height: 500px" width="336.00001176" height="336.00001176">
  <defs id="defs6"/>
  
  <g transform="matrix(1.3333333,0,0,-1.3333333,0,666.66667)" id="g8">
    <g transform="scale(0.1)" id="g10">
      <path id="path12" style="fill:#ffffff;fill-opacity:1;fill-rule:nonzero;stroke:none" d="M 5000,2500 V 0 H 2500 v 2500 h 2500"/>
      <path id="path14" style="fill:#ea1d27;fill-opacity:1;fill-rule:nonzero;stroke:none" d="M 2500,2500 V 0 H 0 v 2500 h 2500"/>
      <path id="path16" style="fill:#100f0d;fill-opacity:1;fill-rule:nonzero;stroke:none" d="M 5000,5000 V 2500 H 2500 v 2500 h 2500"/>
      <path id="path18" style="fill:#ffffff;fill-opacity:1;fill-rule:nonzero;stroke:none" d="M 2500,5000 V 2500 H 0 v 2500 h 2500"/>
      <path id="path20" style="fill:#ea1d27;fill-opacity:1;fill-rule:nonzero;stroke:none" d="m 1568.92,3588.12 c -23.91,65.52 -47.42,129.97 -71.98,197.28 -30.08,-85.08 -59,-166.86 -88.58,-250.53 54.94,18.22 107.04,35.5 160.56,53.25 z m -3.85,314.89 c 60.1,-152.5 119.99,-304.46 180.25,-457.35 -49.76,0 -97.96,0 -147.81,0 13.8,26.99 27.25,53.3 41.44,81.06 -96.2,0 -190.29,0 -286.24,0 14.37,-27.18 28.21,-53.37 42.71,-80.81 -49.9,0 -98.01,0 -148.42,0 60.34,152.67 120.43,304.7 180.67,457.1 45.75,0 90.95,0 137.4,0"/>
      <path id="path22" style="fill:#100f0d;fill-opacity:1;fill-rule:nonzero;stroke:none" d="m 543.508,3506.65 c 2.996,-3.25 7.219,-4.04 11.055,-5.19 56.003,-16.86 112.042,-17.89 167.699,1.23 33.644,11.55 61.836,31.89 79.613,62.57 33.191,57.28 44.242,119.22 26.25,183.65 -13.406,48 -41.367,86.6 -88.805,106.7 -69.191,29.32 -147.941,3.78 -195.812,-62.87 0,-94.57 0,-190.31 0,-286.09 z M 500,3475.03 c 0,193.93 0,387.1 0,580.24 4.531,3.6 9.414,1.84 15.316,1.62 8.715,-13.19 17.75,-26.87 26.786,-40.55 2.472,-3.74 1.593,-7.97 1.593,-12.03 0.016,-48.68 -0.066,-97.35 0.043,-146.02 0.012,-3.88 -1.183,-8.06 1.61,-12.65 12.496,12.24 24.879,23.88 39.257,33.21 85.204,55.26 205.368,22.48 255.09,-57.9 32.196,-52.04 40,-107.91 34.055,-167.01 -4.871,-48.42 -18.93,-93.56 -48.922,-132.91 -32.137,-42.16 -75.301,-65.42 -126.875,-73.46 -66.359,-10.33 -130.586,-1.75 -192.394,24.55 -1.711,0.73 -3.309,1.73 -5.559,2.91"/>
      <path id="path24" style="fill:#100f0d;fill-opacity:1;fill-rule:nonzero;stroke:none" d="m 1248.58,3672.67 c 0.53,39 -7.84,75.69 -27.73,109.5 -59.4,101 -185.6,98.18 -246.276,17.13 -54.14,-72.31 -51.957,-189.18 6.473,-258.04 56.613,-66.73 154.393,-70.21 215.353,-7.57 37.68,38.7 51.92,86.25 52.18,138.98 z m 44.65,11.29 c -0.04,-78.05 -19.78,-138.49 -68.94,-187.02 -77.38,-76.41 -200.65,-71.73 -273.22,9.81 -46.527,52.27 -62.652,114.46 -59.406,182.84 2.613,55.04 19.457,104.62 55.621,147.18 80.905,95.21 221.195,91.64 296.785,-7.7 34.96,-45.95 49.14,-98.33 49.16,-145.11"/>
      <path id="path26" style="fill:#100f0d;fill-opacity:1;fill-rule:nonzero;stroke:none" d="m 1973.03,3866.84 c -49.12,0 -97.38,0 -146.3,0 0,-4.1 0,-7.42 0,-10.75 0.01,-87.59 -0.1,-175.19 0.12,-262.79 0.06,-22.44 1.2,-44.84 6.07,-66.92 3.88,-17.63 14.31,-28.09 31.75,-32.21 37.74,-8.91 74.33,-3.41 110.43,8.52 8.07,2.66 16.05,5.57 24.9,8.65 0,-15.54 0,-29.99 0,-45.48 -40.54,-17.25 -82.76,-26.57 -127.4,-22.27 -18.79,1.81 -36.64,6.96 -53.27,16.22 -31.93,17.8 -48.09,44.36 -47.98,81.32 0.32,104.07 0.11,208.13 0.11,312.2 0,4.06 0,8.13 0,13.56 -46.31,0 -92.03,0 -140.63,0 16.21,14.29 30.11,26.54 44.65,39.35 31.29,0 63.06,0 95.61,0 0,36.55 0,72.37 0,107.95 12.93,14.44 25.39,28.36 37.82,42.25 5.66,1.2 11.15,1.06 17.68,-0.05 0,-49.67 0,-99.26 0,-150.11 49.51,0 98.03,0 146.44,0 0,-13.75 0,-26.23 0,-39.44"/>
      <path id="path28" style="fill:#ea1d27;fill-opacity:1;fill-rule:nonzero;stroke:none" d="m 4068.92,3588.12 c -23.9,65.52 -47.42,129.97 -71.98,197.28 -30.08,-85.08 -58.99,-166.86 -88.58,-250.53 54.94,18.22 107.03,35.5 160.56,53.25 z m -3.85,314.89 c 60.11,-152.5 119.99,-304.46 180.24,-457.35 -49.75,0 -97.95,0 -147.8,0 13.8,26.99 27.25,53.3 41.44,81.06 -96.2,0 -190.29,0 -286.24,0 14.37,-27.18 28.21,-53.37 42.72,-80.81 -49.91,0 -98.03,0 -148.44,0 60.34,152.67 120.44,304.7 180.68,457.1 45.75,0 90.95,0 137.4,0"/>
      <path id="path30" style="fill:#ffffff;fill-opacity:1;fill-rule:nonzero;stroke:none" d="m 3043.51,3506.65 c 2.99,-3.25 7.22,-4.04 11.05,-5.19 56.01,-16.86 112.04,-17.89 167.7,1.23 33.65,11.55 61.83,31.89 79.62,62.57 33.19,57.28 44.23,119.22 26.25,183.65 -13.41,48 -41.37,86.6 -88.8,106.7 -69.2,29.32 -147.95,3.78 -195.82,-62.87 0,-94.57 0,-190.31 0,-286.09 z M 3000,3475.03 c 0,193.93 0,387.1 0,580.24 4.53,3.6 9.41,1.84 15.32,1.62 8.71,-13.19 17.75,-26.87 26.78,-40.55 2.47,-3.74 1.6,-7.97 1.6,-12.03 0.01,-48.68 -0.07,-97.35 0.04,-146.02 0.01,-3.88 -1.18,-8.06 1.6,-12.65 12.5,12.24 24.88,23.88 39.26,33.21 85.2,55.26 205.37,22.48 255.1,-57.9 32.19,-52.04 40,-107.91 34.05,-167.01 -4.87,-48.42 -18.94,-93.56 -48.93,-132.91 -32.13,-42.16 -75.29,-65.42 -126.86,-73.46 -66.37,-10.33 -130.59,-1.75 -192.4,24.55 -1.71,0.73 -3.3,1.73 -5.56,2.91"/>
      <path id="path32" style="fill:#ffffff;fill-opacity:1;fill-rule:nonzero;stroke:none" d="m 3748.58,3672.67 c 0.53,39 -7.85,75.69 -27.73,109.5 -59.39,101 -185.6,98.18 -246.28,17.13 -54.14,-72.31 -51.95,-189.18 6.47,-258.04 56.63,-66.73 154.4,-70.21 215.37,-7.57 37.66,38.7 51.9,86.25 52.17,138.98 z m 44.65,11.29 c -0.04,-78.05 -19.78,-138.49 -68.93,-187.02 -77.39,-76.41 -200.66,-71.73 -273.23,9.81 -46.53,52.27 -62.65,114.46 -59.41,182.84 2.62,55.04 19.46,104.62 55.63,147.18 80.9,95.21 221.19,91.64 296.78,-7.7 34.96,-45.95 49.14,-98.33 49.16,-145.11"/>
      <path id="path34" style="fill:#ffffff;fill-opacity:1;fill-rule:nonzero;stroke:none" d="m 4473.03,3866.84 c -49.12,0 -97.38,0 -146.29,0 0,-4.1 0,-7.42 0,-10.75 0.01,-87.59 -0.11,-175.19 0.12,-262.79 0.04,-22.44 1.19,-44.84 6.06,-66.92 3.89,-17.63 14.31,-28.09 31.75,-32.21 37.74,-8.91 74.33,-3.41 110.44,8.52 8.05,2.66 16.04,5.57 24.89,8.65 0,-15.54 0,-29.99 0,-45.48 -40.54,-17.25 -82.76,-26.57 -127.4,-22.27 -18.79,1.81 -36.64,6.96 -53.27,16.22 -31.93,17.8 -48.09,44.36 -47.98,81.32 0.32,104.07 0.11,208.13 0.11,312.2 0,4.06 0,8.13 0,13.56 -46.31,0 -92.04,0 -140.63,0 16.21,14.29 30.12,26.54 44.65,39.35 31.3,0 63.06,0 95.61,0 0,36.55 0,72.37 0,107.95 12.93,14.44 25.38,28.36 37.82,42.25 5.65,1.2 11.16,1.06 17.67,-0.05 0,-49.67 0,-99.26 0,-150.11 49.52,0 98.05,0 146.45,0 0,-13.75 0,-26.23 0,-39.44"/>
      <path id="path36" style="fill:#ffffff;fill-opacity:1;fill-rule:nonzero;stroke:none" d="m 1568.92,1088.12 c -23.91,65.51 -47.42,129.97 -71.98,197.28 -30.08,-85.09 -59,-166.86 -88.58,-250.53 54.94,18.22 107.04,35.5 160.56,53.25 z m -3.85,314.89 c 60.1,-152.5 119.99,-304.46 180.25,-457.35 -49.76,0 -97.96,0 -147.81,0 13.8,27 27.25,53.301 41.44,81.06 -96.2,0 -190.29,0 -286.24,0 14.37,-27.189 28.21,-53.361 42.71,-80.798 -49.9,0 -98.01,0 -148.42,0 60.34,152.648 120.43,304.688 180.67,457.088 45.75,0 90.95,0 137.4,0"/>
      <path id="path38" style="fill:#ffffff;fill-opacity:1;fill-rule:nonzero;stroke:none" d="m 543.508,1006.65 c 2.996,-3.25 7.219,-4.03 11.055,-5.19 56.003,-16.858 112.042,-17.89 167.699,1.23 33.644,11.56 61.836,31.89 79.613,62.57 33.191,57.28 44.242,119.22 26.25,183.66 -13.406,47.99 -41.367,86.59 -88.805,106.69 -69.191,29.32 -147.941,3.78 -195.812,-62.87 0,-94.57 0,-190.31 0,-286.09 z M 500,975.039 c 0,193.921 0,387.091 0,580.231 4.531,3.61 9.414,1.83 15.316,1.61 8.715,-13.18 17.75,-26.86 26.786,-40.54 2.472,-3.74 1.593,-7.97 1.593,-12.03 0.016,-48.68 -0.066,-97.35 0.043,-146.02 0.012,-3.88 -1.183,-8.06 1.61,-12.65 12.496,12.24 24.879,23.88 39.257,33.21 85.204,55.26 205.368,22.48 255.09,-57.9 32.196,-52.03 40,-107.91 34.055,-167.01 -4.871,-48.41 -18.93,-93.56 -48.922,-132.9 -32.137,-42.169 -75.301,-65.431 -126.875,-73.458 -66.359,-10.344 -130.586,-1.762 -192.394,24.547 -1.711,0.723 -3.309,1.723 -5.559,2.91"/>
      <path id="path40" style="fill:#ffffff;fill-opacity:1;fill-rule:nonzero;stroke:none" d="m 1248.58,1172.68 c 0.53,38.99 -7.84,75.69 -27.73,109.49 -59.4,100.99 -185.6,98.18 -246.276,17.13 -54.14,-72.32 -51.957,-189.17 6.473,-258.04 56.613,-66.729 154.393,-70.209 215.353,-7.58 37.68,38.71 51.92,86.26 52.18,139 z m 44.65,11.28 c -0.04,-78.04 -19.78,-138.49 -68.94,-187.03 -77.38,-76.399 -200.65,-71.719 -273.22,9.82 -46.527,52.27 -62.652,114.45 -59.406,182.85 2.613,55.03 19.457,104.61 55.621,147.17 80.905,95.21 221.195,91.64 296.785,-7.7 34.96,-45.95 49.14,-98.33 49.16,-145.11"/>
      <path id="path42" style="fill:#ffffff;fill-opacity:1;fill-rule:nonzero;stroke:none" d="m 1973.03,1366.84 c -49.12,0 -97.38,0 -146.3,0 0,-4.1 0,-7.43 0,-10.75 0.01,-87.59 -0.1,-175.19 0.12,-262.79 0.06,-22.44 1.2,-44.83 6.07,-66.92 3.88,-17.62 14.31,-28.091 31.75,-32.208 37.74,-8.922 74.33,-3.422 110.43,8.518 8.07,2.66 16.05,5.56 24.9,8.65 0,-15.539 0,-29.988 0,-45.481 -40.54,-17.25 -82.76,-26.558 -127.4,-22.269 -18.79,1.808 -36.64,6.961 -53.27,16.219 -31.93,17.8 -48.09,44.361 -47.98,81.311 0.32,104.08 0.11,208.15 0.11,312.21 0,4.06 0,8.13 0,13.56 -46.31,0 -92.03,0 -140.63,0 16.21,14.29 30.11,26.54 44.65,39.34 31.29,0 63.06,0 95.61,0 0,36.55 0,72.37 0,107.96 12.93,14.44 25.39,28.36 37.82,42.25 5.66,1.21 11.15,1.06 17.68,-0.04 0,-49.67 0,-99.27 0,-150.11 49.51,0 98.03,0 146.44,0 0,-13.76 0,-26.24 0,-39.45"/>
      <path id="path44" style="fill:#100f0d;fill-opacity:1;fill-rule:nonzero;stroke:none" d="m 4068.92,1088.12 c -23.9,65.51 -47.42,129.97 -71.98,197.28 -30.08,-85.09 -58.99,-166.86 -88.58,-250.53 54.94,18.22 107.03,35.5 160.56,53.25 z m -3.85,314.89 c 60.11,-152.5 119.99,-304.46 180.24,-457.35 -49.75,0 -97.95,0 -147.8,0 13.8,27 27.25,53.301 41.44,81.06 -96.2,0 -190.29,0 -286.24,0 14.37,-27.189 28.21,-53.361 42.72,-80.798 -49.91,0 -98.03,0 -148.44,0 60.34,152.648 120.44,304.688 180.68,457.088 45.75,0 90.95,0 137.4,0"/>
      <path id="path46" style="fill:#100f0d;fill-opacity:1;fill-rule:nonzero;stroke:none" d="m 3043.51,1006.65 c 2.99,-3.25 7.22,-4.03 11.05,-5.19 56.01,-16.858 112.04,-17.89 167.7,1.23 33.65,11.56 61.83,31.89 79.62,62.57 33.19,57.28 44.23,119.22 26.25,183.66 -13.41,47.99 -41.37,86.59 -88.8,106.69 -69.2,29.32 -147.95,3.78 -195.82,-62.87 0,-94.57 0,-190.31 0,-286.09 z M 3000,975.039 c 0,193.921 0,387.091 0,580.231 4.53,3.61 9.41,1.83 15.32,1.61 8.71,-13.18 17.75,-26.86 26.78,-40.54 2.47,-3.74 1.6,-7.97 1.6,-12.03 0.01,-48.68 -0.07,-97.35 0.04,-146.02 0.01,-3.88 -1.18,-8.06 1.6,-12.65 12.5,12.24 24.88,23.88 39.26,33.21 85.2,55.26 205.37,22.48 255.1,-57.9 32.19,-52.03 40,-107.91 34.05,-167.01 -4.87,-48.41 -18.94,-93.56 -48.93,-132.9 -32.13,-42.169 -75.29,-65.431 -126.86,-73.458 -66.37,-10.344 -130.59,-1.762 -192.4,24.547 -1.71,0.723 -3.3,1.723 -5.56,2.91"/>
      <path id="path48" style="fill:#100f0d;fill-opacity:1;fill-rule:nonzero;stroke:none" d="m 3748.58,1172.68 c 0.53,38.99 -7.85,75.69 -27.73,109.49 -59.39,100.99 -185.6,98.18 -246.28,17.13 -54.14,-72.32 -51.95,-189.17 6.47,-258.04 56.63,-66.729 154.4,-70.209 215.37,-7.58 37.66,38.71 51.9,86.26 52.17,139 z m 44.65,11.28 c -0.04,-78.04 -19.78,-138.49 -68.93,-187.03 -77.39,-76.399 -200.66,-71.719 -273.23,9.82 -46.53,52.27 -62.65,114.45 -59.41,182.85 2.62,55.03 19.46,104.61 55.63,147.17 80.9,95.21 221.19,91.64 296.78,-7.7 34.96,-45.95 49.14,-98.33 49.16,-145.11"/>
      <path id="path50" style="fill:#100f0d;fill-opacity:1;fill-rule:nonzero;stroke:none" d="m 4473.03,1366.84 c -49.12,0 -97.38,0 -146.29,0 0,-4.1 0,-7.43 0,-10.75 0.01,-87.59 -0.11,-175.19 0.12,-262.79 0.04,-22.44 1.19,-44.83 6.06,-66.92 3.89,-17.62 14.31,-28.091 31.75,-32.208 37.74,-8.922 74.33,-3.422 110.44,8.518 8.05,2.66 16.04,5.56 24.89,8.65 0,-15.539 0,-29.988 0,-45.481 -40.54,-17.25 -82.76,-26.558 -127.4,-22.269 -18.79,1.808 -36.64,6.961 -53.27,16.219 -31.93,17.8 -48.09,44.361 -47.98,81.311 0.32,104.08 0.11,208.15 0.11,312.21 0,4.06 0,8.13 0,13.56 -46.31,0 -92.04,0 -140.63,0 16.21,14.29 30.12,26.54 44.65,39.34 31.3,0 63.06,0 95.61,0 0,36.55 0,72.37 0,107.96 12.93,14.44 25.38,28.36 37.82,42.25 5.65,1.21 11.16,1.06 17.67,-0.04 0,-49.67 0,-99.27 0,-150.11 49.52,0 98.05,0 146.45,0 0,-13.76 0,-26.24 0,-39.45"/>
    </g>
  </g>
</svg>